<svg width="159" height="60" viewBox="0 0 159 60" fill="none" xmlns="http://www.w3.org/2000/svg">
<g filter="url(#filter0_d_205_1269)">
<rect x="4" width="151" height="52" rx="4" fill="#4CAF4F" shape-rendering="crispEdges"/>
<path d="M37.4347 32V20.3636H39.1903V30.4886H44.4631V32H37.4347ZM50.0909 32.1761C49.2311 32.1761 48.4905 31.9924 47.8693 31.625C47.2519 31.2538 46.7746 30.733 46.4375 30.0625C46.1042 29.3883 45.9375 28.5985 45.9375 27.6932C45.9375 26.7992 46.1042 26.0114 46.4375 25.3295C46.7746 24.6477 47.2443 24.1155 47.8466 23.733C48.4527 23.3504 49.161 23.1591 49.9716 23.1591C50.464 23.1591 50.9413 23.2405 51.4034 23.4034C51.8655 23.5663 52.2803 23.822 52.6477 24.1705C53.0152 24.5189 53.3049 24.9716 53.517 25.5284C53.7292 26.0814 53.8352 26.7538 53.8352 27.5455V28.1477H46.8977V26.875H52.1705C52.1705 26.428 52.0795 26.0322 51.8977 25.6875C51.7159 25.339 51.4602 25.0644 51.1307 24.8636C50.8049 24.6629 50.4223 24.5625 49.983 24.5625C49.5057 24.5625 49.089 24.6799 48.733 24.9148C48.3807 25.1458 48.108 25.4489 47.9148 25.8239C47.7254 26.1951 47.6307 26.5985 47.6307 27.0341V28.0284C47.6307 28.6117 47.733 29.108 47.9375 29.517C48.1458 29.9261 48.4356 30.2386 48.8068 30.4545C49.178 30.6667 49.6117 30.7727 50.108 30.7727C50.4299 30.7727 50.7235 30.7273 50.9886 30.6364C51.2538 30.5417 51.483 30.4015 51.6761 30.2159C51.8693 30.0303 52.017 29.8011 52.1193 29.5284L53.7273 29.8182C53.5985 30.2917 53.3674 30.7064 53.0341 31.0625C52.7045 31.4148 52.2898 31.6894 51.7898 31.8864C51.2936 32.0795 50.7273 32.1761 50.0909 32.1761ZM58.2599 32.1932C57.7069 32.1932 57.2069 32.0909 56.7599 31.8864C56.313 31.678 55.9588 31.3769 55.6974 30.983C55.4399 30.589 55.3111 30.1061 55.3111 29.5341C55.3111 29.0417 55.4058 28.6364 55.5952 28.3182C55.7846 28 56.0402 27.7481 56.3622 27.5625C56.6842 27.3769 57.044 27.2367 57.4418 27.142C57.8395 27.0473 58.2448 26.9754 58.6577 26.9261C59.1804 26.8655 59.6046 26.8163 59.9304 26.7784C60.2562 26.7367 60.4929 26.6705 60.6406 26.5795C60.7884 26.4886 60.8622 26.3409 60.8622 26.1364V26.0966C60.8622 25.6004 60.7221 25.2159 60.4418 24.9432C60.1652 24.6705 59.7524 24.5341 59.2031 24.5341C58.6312 24.5341 58.1804 24.661 57.8509 24.9148C57.5251 25.1648 57.2997 25.4432 57.1747 25.75L55.5781 25.3864C55.7675 24.8561 56.044 24.428 56.4077 24.1023C56.7751 23.7727 57.1974 23.5341 57.6747 23.3864C58.152 23.2348 58.6539 23.1591 59.1804 23.1591C59.5289 23.1591 59.8982 23.2008 60.2884 23.2841C60.6823 23.3636 61.0497 23.5114 61.3906 23.7273C61.7353 23.9432 62.0175 24.2519 62.2372 24.6534C62.4569 25.0511 62.5668 25.5682 62.5668 26.2045V32H60.9077V30.8068H60.8395C60.7296 31.0265 60.5649 31.2424 60.3452 31.4545C60.1255 31.6667 59.8433 31.8428 59.4986 31.983C59.1539 32.1231 58.741 32.1932 58.2599 32.1932ZM58.6293 30.8295C59.099 30.8295 59.5005 30.7367 59.8338 30.5511C60.1709 30.3655 60.4266 30.1231 60.6009 29.8239C60.7789 29.5208 60.8679 29.197 60.8679 28.8523V27.7273C60.8073 27.7879 60.6899 27.8447 60.5156 27.8977C60.3452 27.947 60.1501 27.9905 59.9304 28.0284C59.7107 28.0625 59.4967 28.0947 59.2884 28.125C59.08 28.1515 58.9058 28.1742 58.7656 28.1932C58.4361 28.2348 58.1349 28.3049 57.8622 28.4034C57.5933 28.5019 57.3774 28.6439 57.2145 28.8295C57.0554 29.0114 56.9759 29.2538 56.9759 29.5568C56.9759 29.9773 57.1312 30.2955 57.4418 30.5114C57.7524 30.7235 58.1482 30.8295 58.6293 30.8295ZM64.8295 32V23.2727H66.4716V24.6591H66.5625C66.7216 24.1894 67.0019 23.8201 67.4034 23.5511C67.8087 23.2784 68.267 23.142 68.7784 23.142C68.8845 23.142 69.0095 23.1458 69.1534 23.1534C69.3011 23.161 69.4167 23.1705 69.5 23.1818V24.8068C69.4318 24.7879 69.3106 24.767 69.1364 24.7443C68.9621 24.7178 68.7879 24.7045 68.6136 24.7045C68.2121 24.7045 67.8542 24.7898 67.5398 24.9602C67.2292 25.1269 66.983 25.3598 66.8011 25.6591C66.6193 25.9545 66.5284 26.2917 66.5284 26.6705V32H64.8295ZM72.669 26.8182V32H70.9702V23.2727H72.6009V24.6932H72.7088C72.9096 24.2311 73.224 23.8598 73.652 23.5795C74.0838 23.2992 74.6274 23.1591 75.2827 23.1591C75.8774 23.1591 76.3982 23.2841 76.8452 23.5341C77.2921 23.7803 77.6387 24.1477 77.8849 24.6364C78.1312 25.125 78.2543 25.7292 78.2543 26.4489V32H76.5554V26.6534C76.5554 26.0208 76.3906 25.5265 76.0611 25.1705C75.7315 24.8106 75.2789 24.6307 74.7031 24.6307C74.3092 24.6307 73.9588 24.7159 73.652 24.8864C73.349 25.0568 73.1084 25.3068 72.9304 25.6364C72.7562 25.9621 72.669 26.3561 72.669 26.8182ZM84.9034 20.3636H87.0341L90.7386 29.4091H90.875L94.5795 20.3636H96.7102V32H95.0398V23.5795H94.9318L91.5 31.983H90.1136L86.6818 23.5739H86.5739V32H84.9034V20.3636ZM102.803 32.1761C101.984 32.1761 101.27 31.9886 100.661 31.6136C100.051 31.2386 99.5772 30.714 99.2401 30.0398C98.9029 29.3655 98.7344 28.5777 98.7344 27.6761C98.7344 26.7708 98.9029 25.9792 99.2401 25.3011C99.5772 24.6231 100.051 24.0966 100.661 23.7216C101.27 23.3466 101.984 23.1591 102.803 23.1591C103.621 23.1591 104.335 23.3466 104.945 23.7216C105.554 24.0966 106.028 24.6231 106.365 25.3011C106.702 25.9792 106.871 26.7708 106.871 27.6761C106.871 28.5777 106.702 29.3655 106.365 30.0398C106.028 30.714 105.554 31.2386 104.945 31.6136C104.335 31.9886 103.621 32.1761 102.803 32.1761ZM102.808 30.75C103.339 30.75 103.778 30.6098 104.126 30.3295C104.475 30.0492 104.732 29.6761 104.899 29.2102C105.07 28.7443 105.155 28.2311 105.155 27.6705C105.155 27.1136 105.07 26.6023 104.899 26.1364C104.732 25.6667 104.475 25.2898 104.126 25.0057C103.778 24.7216 103.339 24.5795 102.808 24.5795C102.274 24.5795 101.831 24.7216 101.479 25.0057C101.13 25.2898 100.871 25.6667 100.7 26.1364C100.534 26.6023 100.45 27.1136 100.45 27.6705C100.45 28.2311 100.534 28.7443 100.7 29.2102C100.871 29.6761 101.13 30.0492 101.479 30.3295C101.831 30.6098 102.274 30.75 102.808 30.75ZM108.767 32V23.2727H110.409V24.6591H110.5C110.659 24.1894 110.939 23.8201 111.341 23.5511C111.746 23.2784 112.205 23.142 112.716 23.142C112.822 23.142 112.947 23.1458 113.091 23.1534C113.239 23.161 113.354 23.1705 113.438 23.1818V24.8068C113.369 24.7879 113.248 24.767 113.074 24.7443C112.9 24.7178 112.725 24.7045 112.551 24.7045C112.15 24.7045 111.792 24.7898 111.477 24.9602C111.167 25.1269 110.92 25.3598 110.739 25.6591C110.557 25.9545 110.466 26.2917 110.466 26.6705V32H108.767ZM118.357 32.1761C117.497 32.1761 116.756 31.9924 116.135 31.625C115.518 31.2538 115.04 30.733 114.703 30.0625C114.37 29.3883 114.203 28.5985 114.203 27.6932C114.203 26.7992 114.37 26.0114 114.703 25.3295C115.04 24.6477 115.51 24.1155 116.112 23.733C116.718 23.3504 117.427 23.1591 118.237 23.1591C118.73 23.1591 119.207 23.2405 119.669 23.4034C120.131 23.5663 120.546 23.822 120.913 24.1705C121.281 24.5189 121.571 24.9716 121.783 25.5284C121.995 26.0814 122.101 26.7538 122.101 27.5455V28.1477H115.163V26.875H120.436C120.436 26.428 120.345 26.0322 120.163 25.6875C119.982 25.339 119.726 25.0644 119.396 24.8636C119.071 24.6629 118.688 24.5625 118.249 24.5625C117.771 24.5625 117.355 24.6799 116.999 24.9148C116.646 25.1458 116.374 25.4489 116.18 25.8239C115.991 26.1951 115.896 26.5985 115.896 27.0341V28.0284C115.896 28.6117 115.999 29.108 116.203 29.517C116.411 29.9261 116.701 30.2386 117.072 30.4545C117.444 30.6667 117.877 30.7727 118.374 30.7727C118.696 30.7727 118.989 30.7273 119.254 30.6364C119.519 30.5417 119.749 30.4015 119.942 30.2159C120.135 30.0303 120.283 29.8011 120.385 29.5284L121.993 29.8182C121.864 30.2917 121.633 30.7064 121.3 31.0625C120.97 31.4148 120.555 31.6894 120.055 31.8864C119.559 32.0795 118.993 32.1761 118.357 32.1761Z" fill="white"/>
</g>
<defs>
<filter id="filter0_d_205_1269" x="0" y="0" width="159" height="60" filterUnits="userSpaceOnUse" color-interpolation-filters="sRGB">
<feFlood flood-opacity="0" result="BackgroundImageFix"/>
<feColorMatrix in="SourceAlpha" type="matrix" values="0 0 0 0 0 0 0 0 0 0 0 0 0 0 0 0 0 0 127 0" result="hardAlpha"/>
<feOffset dy="4"/>
<feGaussianBlur stdDeviation="2"/>
<feComposite in2="hardAlpha" operator="out"/>
<feColorMatrix type="matrix" values="0 0 0 0 0 0 0 0 0 0 0 0 0 0 0 0 0 0 0.25 0"/>
<feBlend mode="normal" in2="BackgroundImageFix" result="effect1_dropShadow_205_1269"/>
<feBlend mode="normal" in="SourceGraphic" in2="effect1_dropShadow_205_1269" result="shape"/>
</filter>
</defs>
</svg>
