<svg width="442" height="434" viewBox="0 0 442 434" fill="none" xmlns="http://www.w3.org/2000/svg">
<path d="M376.37 433.13C376.37 433.275 304.602 433.399 216.101 433.399C127.6 433.399 55.8008 433.275 55.8008 433.13C55.8008 432.985 127.559 432.861 216.101 432.861C304.643 432.861 376.37 432.996 376.37 433.13Z" fill="#263238"/>
<path d="M306.44 306.606C290.472 295.454 286.855 274.753 287.485 256.139C287.588 253.038 287.247 249.752 288.725 247.034C290.203 244.315 293.655 242.445 296.435 243.747C298.74 244.832 299.743 247.519 301.035 249.741C302.758 252.701 305.285 255.113 308.321 256.697C310.295 257.731 312.745 258.351 314.698 257.276C317.385 255.798 317.695 252.108 317.674 249.008C317.674 243.241 317.64 237.48 317.571 231.727C317.385 228.638 317.699 225.539 318.501 222.549C319.462 219.614 321.602 216.896 324.527 216.069C327.452 215.242 331.1 216.948 331.761 219.966C331.875 221.244 331.906 222.528 331.854 223.81C331.937 225.102 332.537 226.518 333.746 226.911C334.955 227.304 336.216 226.404 337.146 225.495C340.329 222.394 342.5 218.353 344.515 214.364C346.53 210.374 348.505 206.271 351.398 202.871C354.292 199.471 358.292 196.773 362.767 196.515C367.242 196.256 371.904 199.006 373.02 203.346C374.136 207.687 371.604 212.121 368.886 215.645C364.784 220.877 359.949 225.489 354.53 229.34C353.472 229.917 352.628 230.819 352.122 231.913C351.45 233.98 353.403 236.047 355.44 236.698C357.744 237.463 360.245 237.225 362.674 237.515C365.103 237.804 367.687 238.858 368.607 241.132C369.868 244.295 367.222 247.602 364.628 249.772C359.419 254.113 353.504 257.529 347.14 259.87C344.867 260.697 342.479 261.431 340.639 263.022C338.8 264.614 337.704 267.394 338.81 269.575C339.916 271.756 342.758 272.448 345.146 272.004C347.533 271.559 349.652 270.278 351.926 269.42C356.173 267.818 361.651 268.107 364.328 271.776C365.157 273.04 365.682 274.479 365.861 275.98C366.041 277.481 365.87 279.003 365.361 280.427C364.327 283.26 362.735 285.857 360.679 288.065C353.91 296.152 345.115 302.298 335.193 305.872C325.343 309.283 316.217 310.213 306.43 306.627" fill="#4CAF4F"/>
<path d="M368.473 199.067C368.473 199.067 368.38 199.171 368.173 199.357L367.253 200.173C366.447 200.897 365.259 201.951 363.76 203.346C359.511 207.291 355.566 211.551 351.957 216.09C349.652 218.952 347.265 222.198 344.722 225.722C342.18 229.246 339.555 233.05 336.95 237.091C334.174 241.352 331.631 245.762 329.333 250.299C328.134 252.666 327.08 255.136 325.995 257.658L322.791 265.358C318.568 275.056 314.89 284.983 311.774 295.092C309.264 303.363 307.534 311.851 306.606 320.445C306.005 326.244 305.908 332.085 306.317 337.901C306.482 339.968 306.637 341.549 306.782 342.624C306.844 343.141 306.885 343.554 306.926 343.854V344.278C306.882 344.143 306.851 344.005 306.833 343.864C306.782 343.565 306.72 343.162 306.637 342.645C306.451 341.611 306.255 339.978 306.069 337.911C305.57 332.084 305.604 326.224 306.172 320.403C307.042 311.773 308.734 303.246 311.226 294.937C314.316 284.8 317.984 274.848 322.212 265.13L325.499 257.462C326.584 254.95 327.649 252.459 328.858 250.082C331.171 245.531 333.735 241.111 336.537 236.843C339.183 232.709 341.849 228.967 344.361 225.474C346.872 221.981 349.301 218.715 351.595 215.862C355.24 211.336 359.239 207.106 363.553 203.212C365.083 201.837 366.302 200.804 367.129 200.111L368.09 199.336C368.208 199.234 368.336 199.143 368.473 199.067Z" fill="#263238"/>
<path d="M328.992 250.062C328.847 249.636 328.746 249.196 328.693 248.749C328.527 247.892 328.341 246.682 328.124 245.111C327.68 242.011 327.225 237.763 326.739 233.06C326.254 228.358 325.706 224.1 325.251 221.03C325.013 219.501 324.807 218.271 324.662 217.413C324.549 216.974 324.49 216.523 324.486 216.069C324.664 216.483 324.793 216.917 324.869 217.361C325.096 218.209 325.354 219.428 325.644 220.968C326.233 224.069 326.812 228.286 327.297 232.998C327.783 237.711 328.197 241.845 328.517 245.06C328.672 246.507 328.806 247.737 328.91 248.718C328.99 249.161 329.018 249.612 328.992 250.062Z" fill="#263238"/>
<path d="M368.762 242.641C368.259 242.751 367.747 242.813 367.232 242.827C366.199 242.92 364.731 243.044 362.912 243.251C359.274 243.644 354.272 244.367 348.784 245.401C343.296 246.434 338.366 247.602 334.821 248.501C333.054 248.956 331.628 249.37 330.687 249.649C330.185 249.827 329.665 249.952 329.137 250.021C329.614 249.78 330.112 249.583 330.625 249.432C331.596 249.091 333.002 248.615 334.759 248.109C338.283 247.075 343.213 245.845 348.722 244.791C353.388 243.899 358.097 243.243 362.83 242.827C364.659 242.672 366.137 242.61 367.17 242.59C367.701 242.553 368.235 242.571 368.762 242.641Z" fill="#263238"/>
<path d="M311.731 294.214C311.621 294.064 311.531 293.901 311.462 293.728L310.78 292.292C310.191 291.041 309.395 289.191 308.445 286.928C306.522 282.38 304.073 276.014 301.468 268.944C298.864 261.875 296.466 255.508 294.647 250.909C293.758 248.677 293.024 246.847 292.477 245.483L291.898 244.005C291.818 243.835 291.762 243.654 291.732 243.468C291.843 243.617 291.933 243.781 292.001 243.954L292.683 245.39C293.262 246.641 294.068 248.491 295.019 250.754C296.941 255.302 299.391 261.668 301.995 268.738C304.6 275.807 306.998 282.173 308.817 286.773C309.705 289.005 310.439 290.834 310.977 292.199C311.214 292.788 311.411 293.232 311.566 293.677C311.646 293.847 311.702 294.028 311.731 294.214Z" fill="#263238"/>
<path d="M364.524 277.192C364.358 277.287 364.181 277.36 363.996 277.409L362.467 277.926L356.813 279.755C352.039 281.305 345.445 283.517 338.21 285.956C330.975 288.395 324.35 290.566 319.544 292.013C317.147 292.746 315.193 293.305 313.839 293.677L312.279 294.08C312.097 294.137 311.91 294.175 311.721 294.193C311.886 294.098 312.063 294.025 312.248 293.976L313.777 293.46L319.431 291.63C324.206 290.08 330.8 287.868 338.034 285.429C345.269 282.99 351.884 280.82 356.689 279.373C359.098 278.639 361.041 278.081 362.405 277.709L363.965 277.306C364.147 277.248 364.334 277.21 364.524 277.192Z" fill="#263238"/>
<path d="M342.987 26.4894L337.664 28.3911L335.38 21.4355C331.184 8.60942 317.81 1.79848 305.522 6.12896C293.233 10.4594 286.691 24.5257 290.887 37.3518L293.171 44.3074L287.828 46.2194C285.79 47.0097 284.136 48.5548 283.208 50.5335C282.28 52.5122 282.151 54.7724 282.846 56.8441L297.657 102.102C297.964 103.128 298.474 104.081 299.158 104.906C299.841 105.73 300.683 106.409 301.633 106.901C302.584 107.394 303.624 107.691 304.691 107.773C305.759 107.856 306.832 107.724 307.847 107.384L363.006 87.6535C365.071 86.8646 366.749 85.3058 367.688 83.3051C368.626 81.3043 368.753 79.0174 368.04 76.9255L353.219 31.6674C352.903 30.6447 352.385 29.696 351.695 28.8779C351.005 28.0598 350.157 27.3892 349.202 26.9059C348.247 26.4226 347.205 26.1367 346.137 26.0651C345.069 25.9936 343.998 26.1379 342.987 26.4894ZM300.943 33.7241C299.812 30.3891 300.015 26.7457 301.51 23.5572C303.005 20.3686 305.676 17.8823 308.963 16.6193C310.587 16.0639 312.305 15.8412 314.016 15.9644C315.727 16.0876 317.396 16.5543 318.923 17.3366C320.45 18.1189 321.804 19.2007 322.904 20.5175C324.003 21.8344 324.827 23.3592 325.324 25.0012L327.598 31.9568L303.217 40.6798L300.943 33.7241ZM331.949 73.8869L335.732 85.4418C335.801 85.6735 335.779 85.923 335.669 86.1386C335.559 86.3541 335.371 86.5191 335.143 86.5993L329.841 88.4907C329.63 88.5492 329.404 88.5238 329.211 88.4197C329.019 88.3157 328.874 88.1411 328.807 87.9326L324.993 76.4294C322.89 76.3148 320.873 75.5606 319.21 74.2676C317.548 72.9747 316.32 71.2047 315.692 69.1947C314.793 66.5375 314.957 63.6355 316.149 61.0964C317.342 58.5573 319.47 56.578 322.089 55.5729C323.382 55.1311 324.751 54.9541 326.114 55.0526C327.477 55.151 328.806 55.5228 330.022 56.1458C331.238 56.7689 332.317 57.6304 333.193 58.679C334.069 59.7276 334.725 60.9419 335.122 62.2494C335.787 64.2912 335.842 66.4826 335.28 68.5552C334.718 70.6277 333.564 72.4914 331.959 73.918L331.949 73.8869Z" fill="#4CAF4F"/>
<path d="M337.427 28.2669C337.427 28.4116 327.557 32.1219 315.279 36.5351C303 40.9482 292.985 44.4932 292.934 44.3899C292.882 44.2865 302.804 40.5452 315.093 36.1217C327.381 31.6982 337.375 28.1325 337.427 28.2669Z" fill="#263238"/>
<path d="M349.147 30.1689C349.193 30.2586 349.231 30.352 349.261 30.448C349.343 30.6547 349.436 30.9234 349.56 31.2541C349.829 32.0086 350.201 33.0525 350.666 34.3547L354.635 45.9096C356.289 50.8085 358.263 56.6169 360.454 63.0661C361.487 66.301 362.707 69.6703 363.844 73.2153C364.452 75.0421 364.715 76.9663 364.619 78.8894C364.531 79.8895 364.247 80.8625 363.782 81.7523C363.285 82.6391 362.622 83.4216 361.828 84.057C360.232 85.2226 358.459 86.1262 356.578 86.7338L351.255 88.6459L341.179 92.2529L324.115 98.33L312.591 102.381L309.491 103.415L308.664 103.684C308.575 103.723 308.481 103.747 308.385 103.756C308.385 103.756 308.467 103.756 308.643 103.632L309.449 103.312L312.55 102.144L324.012 97.9269L341.044 91.7258L351.1 88.0878L356.423 86.1654C358.251 85.5825 359.972 84.7063 361.518 83.5713C362.257 82.9817 362.874 82.2553 363.337 81.4319C363.775 80.6089 364.039 79.7048 364.113 78.7757C364.208 76.9228 363.955 75.0684 363.368 73.3083C362.252 69.7943 361.074 66.394 360.009 63.1591C357.86 56.6996 355.875 50.8705 354.304 45.9716C352.733 41.0726 351.41 37.1349 350.501 34.3651C350.067 33.0111 349.736 31.9569 349.467 31.1921L349.219 30.3653C349.188 30.3027 349.164 30.2368 349.147 30.1689Z" fill="#263238"/>
<path d="M320.042 15.9167C320.042 15.9167 319.494 15.6479 318.481 15.2345C317.038 14.6798 315.511 14.3723 313.965 14.325C311.674 14.2465 309.393 14.6771 307.288 15.5859C304.729 16.7176 302.54 18.5481 300.974 20.8673C299.397 23.1798 298.55 25.9127 298.545 28.7117C298.566 31.0059 298.914 33.2853 299.578 35.4813C300.116 37.3623 300.674 38.861 301.046 39.9048C301.265 40.435 301.445 40.9809 301.583 41.5378C301.29 41.042 301.044 40.5195 300.849 39.9772C300.426 38.9436 299.816 37.476 299.217 35.5847C298.481 33.3656 298.08 31.0491 298.028 28.7117C298 25.8069 298.866 22.9638 300.508 20.5675C302.13 18.1637 304.408 16.2766 307.071 15.1312C309.242 14.2174 311.593 13.8143 313.944 13.953C315.524 14.0335 317.075 14.4012 318.523 15.0382C318.91 15.2167 319.283 15.424 319.639 15.6583C319.786 15.7229 319.922 15.81 320.042 15.9167Z" fill="#263238"/>
<path d="M320.518 56.3581C320.683 56.2582 320.856 56.1718 321.035 56.0997C321.552 55.8663 322.088 55.6762 322.637 55.5313C323.508 55.2742 324.406 55.1215 325.313 55.0766C326.547 55.0102 327.782 55.1966 328.941 55.6243C331.587 56.5545 334.016 59.252 335.215 62.859C335.79 64.7947 335.79 66.8558 335.215 68.7915C334.577 70.8924 333.434 72.8051 331.887 74.3622L331.949 74.0831C333.323 77.8555 334.822 81.9482 336.372 86.2167L336.465 86.4751L336.207 86.5681L333.84 87.3536L328.672 89.0796L328.414 89.1623L328.331 88.9039C326.915 84.6251 325.365 80.6357 324.197 76.7186L324.425 76.8943C322.404 76.7265 320.478 75.9681 318.885 74.7136C317.444 73.6037 316.262 72.1929 315.423 70.5795C314.665 69.1487 314.288 67.5471 314.327 65.9286C314.375 64.2744 314.788 62.6512 315.537 61.1753C316.285 59.6994 317.351 58.4074 318.657 57.3917C319.195 56.9551 319.799 56.6063 320.446 56.3581C319.862 56.7045 319.296 57.0805 318.751 57.4847C317.315 58.6989 316.216 60.2611 315.557 62.0219C314.991 63.3496 314.727 64.786 314.782 66.228C314.838 67.6701 315.212 69.082 315.877 70.3624C316.703 71.9145 317.856 73.2687 319.257 74.3312C320.776 75.5236 322.613 76.2425 324.538 76.3982H324.714L324.766 76.5532C325.903 80.398 327.463 84.4184 328.9 88.7178L328.559 88.5525L333.726 86.8265L336.083 86.0307L335.917 86.3821C334.377 82.1136 332.889 78.0105 331.525 74.2381V74.0831L331.649 73.9591C333.151 72.4665 334.272 70.6336 334.915 68.6158C335.463 66.7641 335.463 64.7933 334.915 62.9417C333.788 59.469 331.463 56.8336 328.941 55.9034C327.825 55.4729 326.633 55.2726 325.437 55.3143C324.545 55.3347 323.657 55.4561 322.792 55.676C321.252 56.0584 320.528 56.4098 320.518 56.3581Z" fill="#263238"/>
<path d="M288.57 354.779L185.331 354.303C179.369 354.27 173.664 351.873 169.469 347.637C165.273 343.4 162.931 337.672 162.955 331.71L164.051 72.905C164.063 69.9513 164.657 67.0289 165.799 64.3049C166.942 61.5809 168.61 59.1087 170.708 57.0297C172.806 54.9507 175.293 53.3055 178.028 52.1884C180.762 51.0712 183.69 50.5039 186.644 50.5188L289.872 50.9943C295.834 51.0243 301.541 53.4195 305.738 57.6537C309.935 61.8878 312.28 67.6148 312.258 73.5768L311.163 332.372C311.151 335.327 310.557 338.25 309.415 340.975C308.273 343.7 306.605 346.174 304.507 348.254C302.409 350.335 299.922 351.982 297.188 353.102C294.453 354.221 291.525 354.791 288.57 354.779Z" fill="#455A64"/>
<path d="M289.717 59.8932H269.708C269.055 59.9053 268.411 60.0459 267.813 60.307C267.214 60.568 266.673 60.9445 266.22 61.4148C265.767 61.885 265.411 62.44 265.173 63.0478C264.934 63.6557 264.818 64.3046 264.83 64.9575V68.5851C264.842 69.2375 264.726 69.8859 264.487 70.4932C264.249 71.1004 263.893 71.6547 263.439 72.1241C262.986 72.5936 262.445 72.9691 261.847 73.229C261.248 73.489 260.604 73.6283 259.952 73.6391L220.947 73.4634C219.627 73.4282 218.375 72.8708 217.467 71.9135C216.558 70.9562 216.066 69.6773 216.099 68.3578V64.7301C216.133 63.4123 215.642 62.1349 214.736 61.1779C213.829 60.2209 212.58 59.6623 211.262 59.6245H204.224L186.706 59.5418C182.539 59.517 178.532 61.1443 175.563 64.0673C172.593 66.9904 170.903 70.971 170.862 75.1377L169.828 327.752C169.819 329.819 170.216 331.868 170.999 333.781C171.781 335.695 172.932 337.435 174.387 338.904C175.842 340.372 177.572 341.54 179.478 342.339C181.384 343.139 183.429 343.556 185.497 343.565L288.518 344.041C290.587 344.05 292.637 343.652 294.552 342.869C296.466 342.087 298.208 340.934 299.677 339.478C301.147 338.023 302.315 336.292 303.115 334.384C303.915 332.477 304.332 330.431 304.342 328.362L305.375 75.7475C305.4 71.5691 303.765 67.5519 300.828 64.5789C297.892 61.6059 293.896 59.9205 289.717 59.8932Z" fill="white"/>
<path d="M275.858 310.337L199.253 310.006C198.457 310.006 197.816 309.138 197.826 308.084L197.909 288.044C197.909 287.01 198.56 286.122 199.356 286.122L275.961 286.473C276.402 286.549 276.796 286.793 277.062 287.153C277.328 287.513 277.444 287.962 277.387 288.406L277.315 308.425C277.315 309.49 276.653 310.347 275.858 310.337Z" fill="#4CAF4F"/>
<path d="M222.543 300.124C222.12 300.124 221.714 300.057 221.323 299.921C220.939 299.78 220.64 299.601 220.429 299.385L220.665 298.921C220.865 299.116 221.134 299.282 221.47 299.417C221.811 299.547 222.169 299.612 222.543 299.612C222.901 299.612 223.191 299.569 223.413 299.482C223.641 299.39 223.806 299.268 223.909 299.116C224.018 298.964 224.072 298.796 224.072 298.612C224.072 298.39 224.007 298.211 223.877 298.075C223.752 297.94 223.587 297.834 223.381 297.758C223.175 297.677 222.947 297.606 222.698 297.547C222.448 297.487 222.199 297.425 221.95 297.36C221.7 297.289 221.47 297.197 221.258 297.083C221.052 296.97 220.884 296.82 220.754 296.636C220.63 296.446 220.567 296.2 220.567 295.896C220.567 295.614 220.64 295.357 220.787 295.124C220.939 294.885 221.169 294.695 221.478 294.555C221.787 294.408 222.183 294.335 222.665 294.335C222.985 294.335 223.302 294.381 223.617 294.473C223.931 294.56 224.202 294.682 224.43 294.839L224.226 295.319C223.982 295.156 223.722 295.037 223.446 294.961C223.175 294.885 222.912 294.847 222.657 294.847C222.316 294.847 222.034 294.893 221.811 294.985C221.589 295.078 221.424 295.202 221.315 295.36C221.212 295.511 221.161 295.685 221.161 295.88C221.161 296.102 221.223 296.281 221.348 296.417C221.478 296.552 221.646 296.658 221.852 296.734C222.063 296.81 222.294 296.877 222.543 296.937C222.793 296.997 223.039 297.062 223.283 297.132C223.532 297.203 223.76 297.295 223.966 297.409C224.178 297.517 224.346 297.663 224.47 297.848C224.6 298.032 224.665 298.273 224.665 298.571C224.665 298.848 224.59 299.105 224.438 299.344C224.286 299.577 224.053 299.767 223.738 299.913C223.429 300.054 223.031 300.124 222.543 300.124ZM225.976 300.076V294.384H226.578V300.076H225.976ZM228.43 300.076V294.384H228.926L232.854 299.328H232.593V294.384H233.187V300.076H232.691L228.772 295.132H229.032V300.076H228.43ZM237.541 300.124C237.107 300.124 236.706 300.054 236.338 299.913C235.974 299.767 235.657 299.563 235.386 299.303C235.121 299.043 234.912 298.737 234.76 298.384C234.614 298.032 234.541 297.647 234.541 297.23C234.541 296.812 234.614 296.427 234.76 296.075C234.912 295.723 235.123 295.416 235.394 295.156C235.665 294.896 235.983 294.695 236.346 294.555C236.714 294.408 237.116 294.335 237.549 294.335C237.983 294.335 238.379 294.403 238.736 294.538C239.1 294.674 239.409 294.88 239.663 295.156L239.289 295.538C239.051 295.3 238.788 295.129 238.501 295.026C238.213 294.923 237.904 294.872 237.574 294.872C237.221 294.872 236.896 294.931 236.598 295.051C236.305 295.164 236.048 295.33 235.825 295.547C235.609 295.758 235.438 296.007 235.313 296.295C235.194 296.577 235.134 296.888 235.134 297.23C235.134 297.566 235.194 297.878 235.313 298.165C235.438 298.452 235.609 298.704 235.825 298.921C236.048 299.132 236.305 299.298 236.598 299.417C236.896 299.531 237.219 299.588 237.565 299.588C237.891 299.588 238.197 299.539 238.484 299.441C238.777 299.344 239.045 299.179 239.289 298.945L239.631 299.401C239.36 299.639 239.043 299.821 238.679 299.946C238.316 300.065 237.937 300.124 237.541 300.124ZM239.054 299.328V297.23H239.631V299.401L239.054 299.328ZM245.755 300.124C245.029 300.124 244.457 299.916 244.039 299.498C243.622 299.081 243.413 298.463 243.413 297.644V294.384H244.015V297.62C244.015 298.292 244.167 298.788 244.47 299.108C244.774 299.428 245.202 299.588 245.755 299.588C246.313 299.588 246.744 299.428 247.048 299.108C247.351 298.788 247.503 298.292 247.503 297.62V294.384H248.089V297.644C248.089 298.463 247.88 299.081 247.463 299.498C247.051 299.916 246.481 300.124 245.755 300.124ZM249.902 300.076V294.384H252.032C252.515 294.384 252.929 294.462 253.276 294.62C253.623 294.771 253.889 294.994 254.073 295.286C254.263 295.574 254.358 295.923 254.358 296.335C254.358 296.736 254.263 297.083 254.073 297.376C253.889 297.663 253.623 297.886 253.276 298.043C252.929 298.2 252.515 298.279 252.032 298.279H250.235L250.504 297.994V300.076H249.902ZM250.504 298.043L250.235 297.75H252.016C252.585 297.75 253.016 297.628 253.309 297.384C253.607 297.135 253.756 296.785 253.756 296.335C253.756 295.88 253.607 295.528 253.309 295.278C253.016 295.029 252.585 294.904 252.016 294.904H250.235L250.504 294.62V298.043Z" fill="#E8E8E3"/>
<path d="M214.533 134.152L187.951 134.031L187.929 138.909L214.511 139.03L214.533 134.152Z" fill="#4CAF4F"/>
<path opacity="0.1" d="M214.533 134.152L187.951 134.031L187.929 138.909L214.511 139.03L214.533 134.152Z" fill="black"/>
<path d="M292.456 164.103C292.665 164.082 292.87 164.034 293.066 163.959C293.352 163.847 293.6 163.657 293.783 163.41C293.966 163.163 294.076 162.87 294.099 162.563C294.099 160.92 294.099 158.522 294.099 155.443C294.099 153.903 294.099 152.177 294.099 150.275C294.099 149.81 294.099 149.324 294.099 148.838C294.167 148.367 294.064 147.887 293.81 147.484C293.668 147.291 293.482 147.134 293.269 147.024C293.056 146.915 292.82 146.857 292.58 146.854H290.968H276.033L189.589 146.534C189.368 146.53 189.149 146.579 188.951 146.678C188.753 146.777 188.582 146.923 188.452 147.102C188.203 147.506 188.107 147.987 188.183 148.456C188.183 149.489 188.183 150.523 188.183 151.556C188.183 153.624 188.183 155.691 188.183 157.758C188.183 158.791 188.183 159.825 188.183 160.858C188.141 161.34 188.141 161.824 188.183 162.305C188.238 162.511 188.339 162.703 188.478 162.864C188.618 163.025 188.793 163.152 188.99 163.235C189.193 163.316 189.411 163.355 189.63 163.349H194.891L217.846 163.473L256.706 163.711L282.906 163.917L290.027 164H291.877C292.301 164 292.508 164 292.508 164H291.877H290.027H282.906H256.706L217.846 163.876L194.891 163.783H189.63C189.341 163.795 189.052 163.745 188.783 163.638C188.511 163.522 188.269 163.345 188.075 163.122C187.882 162.898 187.742 162.633 187.667 162.346C187.607 162.075 187.586 161.797 187.605 161.52V160.755C187.605 159.721 187.605 158.688 187.605 157.654C187.605 155.587 187.605 153.52 187.605 151.453C187.605 150.42 187.605 149.386 187.605 148.353C187.585 148.077 187.585 147.801 187.605 147.526C187.643 147.222 187.761 146.933 187.946 146.689C188.124 146.439 188.36 146.236 188.634 146.098C188.907 145.959 189.21 145.889 189.517 145.893L275.961 146.368L290.895 146.471H292.508C292.792 146.472 293.071 146.54 293.323 146.672C293.575 146.803 293.792 146.993 293.955 147.226C294.246 147.675 294.363 148.215 294.285 148.745C294.285 149.231 294.285 149.717 294.285 150.182C294.285 152.063 294.285 153.789 294.285 155.349C294.285 158.45 294.213 160.827 294.192 162.481C294.167 162.799 294.051 163.103 293.859 163.357C293.667 163.612 293.406 163.806 293.107 163.917C292.911 164.039 292.686 164.103 292.456 164.103Z" fill="#E0E0E0"/>
<path d="M244.553 151.722H195.936V156.28H244.553V151.722Z" fill="#4CAF4F"/>
<path opacity="0.2" d="M244.553 151.722H195.936V156.28H244.553V151.722Z" fill="white"/>
<path d="M214.352 178.654L187.77 178.534L187.747 183.412L214.329 183.533L214.352 178.654Z" fill="#4CAF4F"/>
<path opacity="0.1" d="M214.352 178.654L187.77 178.534L187.747 183.412L214.329 183.533L214.352 178.654Z" fill="black"/>
<path d="M291.785 208.607C291.994 208.581 292.201 208.543 292.405 208.493C292.694 208.401 292.959 208.249 293.184 208.045C293.409 207.842 293.587 207.593 293.707 207.315C293.87 206.898 293.934 206.448 293.893 206.002C293.893 205.506 293.893 204.969 293.893 204.369C293.893 203.17 293.893 201.806 293.893 200.235V193.672C293.943 193.197 293.838 192.719 293.594 192.308C293.339 191.887 292.938 191.574 292.467 191.43C291.952 191.338 291.428 191.31 290.907 191.347H276.034L189.89 191.027C189.426 191.028 188.979 191.197 188.631 191.503C188.283 191.809 188.058 192.231 187.998 192.691C187.998 193.672 187.998 194.758 187.998 195.791C187.998 197.858 187.998 199.925 187.998 201.992C187.998 203.026 187.998 204.059 187.998 205.093C187.96 205.576 187.981 206.062 188.06 206.54C188.189 206.959 188.455 207.323 188.815 207.573C189.197 207.816 189.645 207.931 190.096 207.904H191.533H194.52L217.392 208.018L256.118 208.255L282.225 208.462L289.325 208.545H282.225H256.118L217.371 208.503L194.499 208.421H190.003C189.444 208.454 188.89 208.305 188.422 207.997C187.952 207.671 187.609 207.193 187.451 206.643C187.358 206.118 187.33 205.583 187.368 205.051C187.368 204.018 187.368 202.984 187.368 201.951C187.368 199.884 187.368 197.817 187.368 195.75C187.368 194.716 187.368 193.683 187.368 192.649C187.443 192.058 187.731 191.515 188.179 191.121C188.626 190.727 189.201 190.51 189.797 190.51L275.941 190.985L290.814 191.099C291.367 191.065 291.923 191.103 292.467 191.213C293.004 191.388 293.457 191.756 293.738 192.246C294.006 192.701 294.122 193.23 294.069 193.755C294.069 194.241 294.069 194.716 294.069 195.192C294.069 197.062 294.069 198.778 294.069 200.359C294.069 201.941 294.069 203.274 294.069 204.493C294.069 205.082 294.069 205.63 294.069 206.137C294.107 206.599 294.032 207.063 293.852 207.491C293.718 207.776 293.524 208.029 293.283 208.232C293.042 208.435 292.76 208.584 292.457 208.669C292.231 208.687 292.004 208.666 291.785 208.607Z" fill="#E0E0E0"/>
<path d="M214.15 225.089L187.568 224.969L187.546 229.847L214.128 229.968L214.15 225.089Z" fill="#4CAF4F"/>
<path opacity="0.1" d="M214.15 225.089L187.568 224.969L187.546 229.847L214.128 229.968L214.15 225.089Z" fill="black"/>
<path d="M291.577 255.023C291.786 254.998 291.993 254.96 292.197 254.909C292.484 254.818 292.749 254.667 292.974 254.465C293.198 254.264 293.377 254.017 293.499 253.741C293.661 253.324 293.725 252.875 293.685 252.429C293.685 251.922 293.685 251.395 293.685 250.785C293.685 249.597 293.685 248.222 293.685 246.651V240.088C293.735 239.613 293.629 239.135 293.385 238.724C293.124 238.311 292.725 238.003 292.259 237.856C291.745 237.761 291.22 237.729 290.698 237.763H275.826L189.681 237.443C189.218 237.444 188.771 237.613 188.423 237.919C188.075 238.225 187.85 238.647 187.79 239.107C187.79 240.14 187.79 241.174 187.79 242.207C187.79 244.274 187.79 246.341 187.79 248.408C187.79 249.442 187.79 250.475 187.79 251.509C187.752 251.989 187.772 252.471 187.852 252.946C187.976 253.367 188.243 253.733 188.607 253.979C188.986 254.227 189.436 254.343 189.888 254.31H194.384L217.256 254.434L255.982 254.672L282.089 254.878L289.189 254.961H282.089H255.982L217.256 254.847L194.384 254.754H189.888C189.329 254.792 188.772 254.643 188.307 254.33C187.837 254.005 187.493 253.526 187.335 252.977C187.243 252.451 187.215 251.917 187.253 251.385C187.253 250.351 187.253 249.318 187.253 248.284C187.253 246.217 187.253 244.15 187.253 242.083C187.253 241.05 187.253 240.016 187.253 238.931C187.326 238.341 187.612 237.798 188.057 237.404C188.503 237.01 189.076 236.792 189.671 236.792L275.816 237.267L290.688 237.381C291.242 237.347 291.798 237.385 292.342 237.494C292.879 237.67 293.331 238.038 293.613 238.528C293.88 238.983 293.996 239.511 293.944 240.037C293.944 240.523 293.944 241.008 293.944 241.473C293.944 243.344 293.944 245.06 293.944 246.641C293.944 248.222 293.944 249.556 293.944 250.775C293.944 251.364 293.944 251.912 293.944 252.418C293.983 252.881 293.909 253.346 293.727 253.772C293.592 254.058 293.398 254.31 293.158 254.514C292.917 254.717 292.635 254.866 292.331 254.951C292.089 255.034 291.83 255.058 291.577 255.023Z" fill="#E0E0E0"/>
<path d="M243.515 197.514L194.898 197.293L194.878 201.851L243.494 202.072L243.515 197.514Z" fill="#4CAF4F"/>
<path opacity="0.2" d="M243.515 197.514L194.898 197.293L194.878 201.851L243.494 202.072L243.515 197.514Z" fill="white"/>
<path d="M199.293 246.589C199.263 247.005 199.111 247.402 198.857 247.733C198.602 248.063 198.257 248.311 197.862 248.447C197.468 248.582 197.043 248.599 196.639 248.495C196.235 248.391 195.871 248.171 195.591 247.862C195.312 247.553 195.129 247.168 195.066 246.756C195.002 246.344 195.061 245.923 195.236 245.544C195.41 245.165 195.691 244.846 196.045 244.626C196.399 244.405 196.81 244.294 197.226 244.305C197.802 244.337 198.342 244.595 198.729 245.022C199.116 245.45 199.319 246.013 199.293 246.589Z" fill="#4CAF4F"/>
<path d="M205.878 246.62C205.898 246.911 205.858 247.204 205.761 247.479C205.663 247.755 205.51 248.007 205.311 248.22C205.112 248.434 204.871 248.604 204.603 248.721C204.335 248.837 204.046 248.897 203.754 248.897C203.462 248.897 203.173 248.837 202.905 248.721C202.637 248.604 202.396 248.434 202.197 248.22C201.998 248.007 201.845 247.755 201.747 247.479C201.65 247.204 201.61 246.911 201.63 246.62C201.61 246.329 201.65 246.036 201.747 245.761C201.845 245.486 201.998 245.233 202.197 245.02C202.396 244.806 202.637 244.636 202.905 244.519C203.173 244.403 203.462 244.343 203.754 244.343C204.046 244.343 204.335 244.403 204.603 244.519C204.871 244.636 205.112 244.806 205.311 245.02C205.51 245.233 205.663 245.486 205.761 245.761C205.858 246.036 205.898 246.329 205.878 246.62Z" fill="#4CAF4F"/>
<path d="M212.471 246.651C212.441 247.067 212.289 247.464 212.034 247.795C211.78 248.125 211.434 248.373 211.04 248.509C210.646 248.644 210.221 248.661 209.817 248.557C209.413 248.453 209.049 248.233 208.769 247.924C208.489 247.615 208.307 247.23 208.243 246.818C208.18 246.406 208.239 245.985 208.413 245.606C208.587 245.227 208.869 244.908 209.223 244.688C209.577 244.467 209.987 244.356 210.404 244.367C210.979 244.402 211.517 244.66 211.904 245.087C212.29 245.514 212.494 246.076 212.471 246.651Z" fill="#4CAF4F"/>
<path d="M219.055 246.682C219.025 247.098 218.873 247.496 218.618 247.826C218.364 248.156 218.018 248.404 217.624 248.54C217.23 248.675 216.805 248.692 216.401 248.588C215.997 248.484 215.633 248.264 215.353 247.955C215.073 247.646 214.891 247.262 214.827 246.85C214.764 246.438 214.823 246.016 214.997 245.637C215.171 245.259 215.453 244.939 215.807 244.719C216.161 244.499 216.571 244.387 216.988 244.398C217.563 244.433 218.101 244.691 218.488 245.118C218.874 245.545 219.078 246.107 219.055 246.682Z" fill="#4CAF4F"/>
<path d="M225.638 246.703C225.609 247.119 225.459 247.518 225.206 247.85C224.953 248.181 224.607 248.431 224.213 248.568C223.819 248.705 223.393 248.724 222.989 248.621C222.584 248.518 222.219 248.298 221.938 247.989C221.658 247.681 221.474 247.296 221.41 246.884C221.346 246.471 221.405 246.049 221.578 245.67C221.752 245.291 222.034 244.971 222.388 244.75C222.742 244.53 223.154 244.418 223.571 244.429C224.144 244.464 224.681 244.721 225.067 245.146C225.453 245.57 225.658 246.129 225.638 246.703Z" fill="#4CAF4F"/>
<path d="M232.232 246.734C232.204 247.148 232.055 247.545 231.804 247.876C231.553 248.206 231.211 248.457 230.82 248.595C230.428 248.734 230.005 248.756 229.602 248.657C229.199 248.559 228.833 248.344 228.55 248.04C228.267 247.737 228.079 247.357 228.009 246.948C227.939 246.538 227.99 246.118 228.156 245.737C228.322 245.357 228.596 245.033 228.944 244.806C229.291 244.579 229.698 244.459 230.113 244.46C230.695 244.482 231.245 244.733 231.642 245.159C232.039 245.585 232.251 246.152 232.232 246.734Z" fill="#4CAF4F"/>
<path d="M238.815 246.765C238.836 247.056 238.796 247.348 238.698 247.624C238.601 247.899 238.448 248.151 238.249 248.365C238.049 248.579 237.808 248.749 237.54 248.865C237.273 248.982 236.984 249.042 236.692 249.042C236.399 249.042 236.11 248.982 235.843 248.865C235.575 248.749 235.334 248.579 235.135 248.365C234.935 248.151 234.782 247.899 234.685 247.624C234.587 247.348 234.547 247.056 234.568 246.765C234.547 246.473 234.587 246.181 234.685 245.905C234.782 245.63 234.935 245.378 235.135 245.164C235.334 244.951 235.575 244.78 235.843 244.664C236.11 244.547 236.399 244.487 236.692 244.487C236.984 244.487 237.273 244.547 237.54 244.664C237.808 244.78 238.049 244.951 238.249 245.164C238.448 245.378 238.601 245.63 238.698 245.905C238.796 246.181 238.836 246.473 238.815 246.765Z" fill="#4CAF4F"/>
<path d="M245.4 246.796C245.371 247.21 245.223 247.607 244.972 247.938C244.721 248.268 244.379 248.519 243.988 248.657C243.596 248.796 243.173 248.818 242.77 248.719C242.367 248.621 242.001 248.406 241.718 248.102C241.435 247.799 241.247 247.419 241.177 247.01C241.107 246.6 241.158 246.18 241.324 245.799C241.49 245.419 241.764 245.095 242.112 244.868C242.459 244.641 242.866 244.521 243.281 244.522C243.863 244.544 244.413 244.795 244.81 245.221C245.207 245.647 245.419 246.214 245.4 246.796Z" fill="#4CAF4F"/>
<path d="M251.984 246.827C251.955 247.243 251.805 247.642 251.552 247.974C251.298 248.305 250.953 248.555 250.559 248.692C250.165 248.829 249.739 248.848 249.335 248.745C248.93 248.642 248.565 248.422 248.284 248.113C248.003 247.805 247.82 247.42 247.756 247.008C247.692 246.595 247.75 246.173 247.924 245.794C248.098 245.415 248.38 245.095 248.734 244.874C249.088 244.653 249.499 244.542 249.917 244.553C250.49 244.588 251.026 244.845 251.412 245.27C251.799 245.694 252.004 246.253 251.984 246.827Z" fill="#4CAF4F"/>
<g opacity="0.2">
<path d="M199.293 246.589C199.263 247.005 199.111 247.402 198.857 247.733C198.602 248.063 198.257 248.311 197.862 248.447C197.468 248.582 197.043 248.599 196.639 248.495C196.235 248.391 195.871 248.171 195.591 247.862C195.312 247.553 195.129 247.168 195.066 246.756C195.002 246.344 195.061 245.923 195.236 245.544C195.41 245.165 195.691 244.846 196.045 244.626C196.399 244.405 196.81 244.294 197.226 244.305C197.802 244.337 198.342 244.595 198.729 245.022C199.116 245.45 199.319 246.013 199.293 246.589Z" fill="white"/>
<path d="M205.878 246.62C205.898 246.911 205.858 247.204 205.761 247.479C205.663 247.755 205.51 248.007 205.311 248.22C205.112 248.434 204.871 248.604 204.603 248.721C204.335 248.837 204.046 248.897 203.754 248.897C203.462 248.897 203.173 248.837 202.905 248.721C202.637 248.604 202.396 248.434 202.197 248.22C201.998 248.007 201.845 247.755 201.747 247.479C201.65 247.204 201.61 246.911 201.63 246.62C201.61 246.329 201.65 246.036 201.747 245.761C201.845 245.486 201.998 245.233 202.197 245.02C202.396 244.806 202.637 244.636 202.905 244.519C203.173 244.403 203.462 244.343 203.754 244.343C204.046 244.343 204.335 244.403 204.603 244.519C204.871 244.636 205.112 244.806 205.311 245.02C205.51 245.233 205.663 245.486 205.761 245.761C205.858 246.036 205.898 246.329 205.878 246.62Z" fill="white"/>
<path d="M212.471 246.651C212.441 247.067 212.289 247.464 212.034 247.795C211.78 248.125 211.434 248.373 211.04 248.509C210.646 248.644 210.221 248.661 209.817 248.557C209.413 248.453 209.049 248.233 208.769 247.924C208.489 247.615 208.307 247.23 208.243 246.818C208.18 246.406 208.239 245.985 208.413 245.606C208.587 245.227 208.869 244.908 209.223 244.688C209.577 244.467 209.987 244.356 210.404 244.367C210.979 244.402 211.517 244.66 211.904 245.087C212.29 245.514 212.494 246.076 212.471 246.651Z" fill="white"/>
<path d="M219.055 246.682C219.025 247.098 218.873 247.496 218.618 247.826C218.364 248.156 218.018 248.404 217.624 248.54C217.23 248.675 216.805 248.692 216.401 248.588C215.997 248.484 215.633 248.264 215.353 247.955C215.073 247.646 214.891 247.262 214.827 246.85C214.764 246.438 214.823 246.016 214.997 245.637C215.171 245.259 215.453 244.939 215.807 244.719C216.161 244.499 216.571 244.387 216.988 244.398C217.563 244.433 218.101 244.691 218.488 245.118C218.874 245.545 219.078 246.107 219.055 246.682Z" fill="white"/>
<path d="M225.638 246.703C225.609 247.119 225.459 247.518 225.206 247.85C224.953 248.181 224.607 248.431 224.213 248.568C223.819 248.705 223.393 248.724 222.989 248.621C222.584 248.518 222.219 248.298 221.938 247.989C221.658 247.681 221.474 247.296 221.41 246.884C221.346 246.471 221.405 246.049 221.578 245.67C221.752 245.291 222.034 244.971 222.388 244.75C222.742 244.53 223.154 244.418 223.571 244.429C224.144 244.464 224.681 244.721 225.067 245.146C225.453 245.57 225.658 246.129 225.638 246.703Z" fill="white"/>
<path d="M232.232 246.734C232.204 247.148 232.055 247.545 231.804 247.876C231.553 248.206 231.211 248.457 230.82 248.595C230.428 248.734 230.005 248.756 229.602 248.657C229.199 248.559 228.833 248.344 228.55 248.04C228.267 247.737 228.079 247.357 228.009 246.948C227.939 246.538 227.99 246.118 228.156 245.737C228.322 245.357 228.596 245.033 228.944 244.806C229.291 244.579 229.698 244.459 230.113 244.46C230.695 244.482 231.245 244.733 231.642 245.159C232.039 245.585 232.251 246.152 232.232 246.734Z" fill="white"/>
<path d="M238.815 246.765C238.836 247.056 238.796 247.348 238.698 247.624C238.601 247.899 238.448 248.151 238.249 248.365C238.049 248.579 237.808 248.749 237.54 248.865C237.273 248.982 236.984 249.042 236.692 249.042C236.399 249.042 236.11 248.982 235.843 248.865C235.575 248.749 235.334 248.579 235.135 248.365C234.935 248.151 234.782 247.899 234.685 247.624C234.587 247.348 234.547 247.056 234.568 246.765C234.547 246.473 234.587 246.181 234.685 245.905C234.782 245.63 234.935 245.378 235.135 245.164C235.334 244.951 235.575 244.78 235.843 244.664C236.11 244.547 236.399 244.487 236.692 244.487C236.984 244.487 237.273 244.547 237.54 244.664C237.808 244.78 238.049 244.951 238.249 245.164C238.448 245.378 238.601 245.63 238.698 245.905C238.796 246.181 238.836 246.473 238.815 246.765Z" fill="white"/>
<path d="M245.4 246.796C245.371 247.21 245.223 247.607 244.972 247.938C244.721 248.268 244.379 248.519 243.988 248.657C243.596 248.796 243.173 248.818 242.77 248.719C242.367 248.621 242.001 248.406 241.718 248.102C241.435 247.799 241.247 247.419 241.177 247.01C241.107 246.6 241.158 246.18 241.324 245.799C241.49 245.419 241.764 245.095 242.112 244.868C242.459 244.641 242.866 244.521 243.281 244.522C243.863 244.544 244.413 244.795 244.81 245.221C245.207 245.647 245.419 246.214 245.4 246.796Z" fill="white"/>
<path d="M251.982 246.827C251.953 247.243 251.803 247.642 251.55 247.974C251.296 248.305 250.951 248.555 250.557 248.692C250.163 248.829 249.737 248.848 249.333 248.745C248.928 248.642 248.563 248.422 248.282 248.113C248.001 247.805 247.818 247.42 247.754 247.008C247.69 246.595 247.748 246.173 247.922 245.794C248.096 245.415 248.378 245.095 248.732 244.874C249.086 244.653 249.497 244.542 249.915 244.553C250.488 244.588 251.024 244.845 251.41 245.27C251.797 245.694 252.002 246.253 251.982 246.827Z" fill="white"/>
</g>
<path d="M242.631 97.627C243.349 97.3109 243.958 96.7905 244.382 96.1308C244.807 95.4711 245.028 94.7011 245.018 93.9167C245.045 93.4067 244.968 92.8967 244.791 92.4176C244.614 91.9385 244.342 91.5004 243.99 91.13C243.639 90.7596 243.216 90.4646 242.746 90.2631C242.277 90.0615 241.772 89.9575 241.261 89.9575C240.751 89.9575 240.245 90.0615 239.776 90.2631C239.307 90.4646 238.884 90.7596 238.532 91.13C238.181 91.5004 237.908 91.9385 237.732 92.4176C237.555 92.8967 237.478 93.4067 237.504 93.9167C237.489 94.709 237.708 95.4882 238.135 96.1559C238.562 96.8236 239.177 97.3499 239.902 97.6684C234.114 98.5365 234.373 104.82 234.373 104.82L248.057 104.882C248.057 104.882 248.377 98.4849 242.631 97.627Z" fill="#4CAF4F"/>
<path opacity="0.1" d="M242.631 97.627C243.349 97.3109 243.958 96.7905 244.382 96.1308C244.807 95.4711 245.028 94.7011 245.018 93.9167C245.045 93.4067 244.968 92.8967 244.791 92.4176C244.614 91.9385 244.342 91.5004 243.99 91.13C243.639 90.7596 243.216 90.4646 242.746 90.2631C242.277 90.0615 241.772 89.9575 241.261 89.9575C240.751 89.9575 240.245 90.0615 239.776 90.2631C239.307 90.4646 238.884 90.7596 238.532 91.13C238.181 91.5004 237.908 91.9385 237.732 92.4176C237.555 92.8967 237.478 93.4067 237.504 93.9167C237.489 94.709 237.708 95.4882 238.135 96.1559C238.562 96.8236 239.177 97.3499 239.902 97.6684C234.114 98.5365 234.373 104.82 234.373 104.82L248.057 104.882C248.057 104.882 248.377 98.4849 242.631 97.627Z" fill="black"/>
<path d="M264.865 108.935L216.094 108.714L216.067 114.543L264.839 114.764L264.865 108.935Z" fill="#4CAF4F"/>
<path opacity="0.2" d="M264.865 108.935L216.094 108.714L216.067 114.543L264.839 114.764L264.865 108.935Z" fill="white"/>
<path d="M85.5661 139.144H85.0803L83.6747 139.247C82.9141 139.293 82.1577 139.393 81.4113 139.547C80.9279 139.615 80.4484 139.708 79.9747 139.826L78.3728 140.27C75.6461 141.107 73.0736 142.381 70.7557 144.043C67.6932 146.265 65.136 149.111 63.2523 152.393C62.1451 154.285 61.264 156.301 60.6271 158.398C59.9579 160.678 59.5726 163.031 59.4799 165.406C59.4183 166.653 59.439 167.903 59.5419 169.147C59.5419 169.777 59.7176 170.408 59.8003 171.049C59.8698 171.695 59.9908 172.334 60.162 172.961C61.0914 177.108 62.9771 180.981 65.6688 184.27C68.3604 187.559 71.7835 190.174 75.6649 191.905C78.4741 193.117 81.4852 193.794 84.5429 193.9C87.7011 194.074 90.8624 193.62 93.8446 192.567L94.7542 192.226H94.8782L94.9815 192.288L108.014 198.902L107.632 199.233C106.237 194.913 104.893 190.727 103.591 186.707V186.551L103.704 186.438C106.866 183.253 109.213 179.354 110.546 175.069C111.754 171.152 112.107 167.021 111.58 162.956C111.112 159.343 109.95 155.855 108.159 152.683C106.615 149.958 104.624 147.512 102.268 145.448C100.324 143.815 98.1731 142.445 95.8704 141.376C94.128 140.625 92.3133 140.053 90.4547 139.671L88.3876 139.33L86.889 139.216L85.9795 139.154H85.6695C85.7725 139.143 85.8765 139.143 85.9795 139.154H86.8993L88.398 139.216L90.465 139.516C92.3468 139.87 94.1862 140.421 95.953 141.159C98.2954 142.216 100.485 143.582 102.464 145.221C104.863 147.275 106.897 149.722 108.479 152.455C110.321 155.662 111.518 159.197 112.004 162.863C112.574 166.991 112.246 171.193 111.043 175.183C109.7 179.556 107.317 183.539 104.097 186.789L104.159 186.52C105.461 190.541 106.815 194.727 108.221 199.037L108.417 199.667L107.828 199.367L94.7955 192.763H95.0229L94.0927 193.104C91.053 194.174 87.8332 194.637 84.6153 194.468C81.4916 194.349 78.4176 193.648 75.5512 192.401C70.0836 190.06 65.5345 185.99 62.6011 180.815C61.2513 178.426 60.2655 175.848 59.6763 173.167C59.5149 172.524 59.3941 171.872 59.3145 171.214C59.2318 170.563 59.0975 169.922 59.0665 169.281C58.7868 165.604 59.1754 161.906 60.2137 158.367C60.8664 156.241 61.7721 154.201 62.9112 152.29C64.8399 148.978 67.4503 146.114 70.5696 143.888C72.9257 142.221 75.5415 140.957 78.3107 140.146L79.9334 139.733C80.411 139.622 80.8939 139.536 81.3803 139.474C82.1344 139.335 82.8979 139.252 83.6644 139.226L85.0803 139.175C85.2413 139.153 85.4037 139.143 85.5661 139.144Z" fill="#4CAF4F"/>
<path d="M91.4579 163.246H89.5459L85.4118 157.437V153.623C85.4118 153.623 82.4559 153.437 82.8073 158.429C83.1587 163.421 82.8073 162.15 82.8073 162.15C82.8073 162.15 76.5338 162.15 76.017 162.718C75.5003 163.287 75.4692 169.343 75.3969 172.723C75.3573 173.538 75.5911 174.342 76.0611 175.009C76.5311 175.676 77.2104 176.166 77.991 176.402C78.2099 176.463 78.4358 176.494 78.6628 176.495C80.2338 176.495 88.223 175.224 88.223 175.224H91.5199L91.4579 163.246Z" fill="#4CAF4F"/>
<path d="M96.9246 162.222L95.7464 175.286H92.4805V162.491L96.9246 162.222Z" fill="#4CAF4F"/>
<path d="M135.877 428.18V419.343L120.033 419.229L119.898 432.593L120.88 432.665C125.252 432.944 143.122 433.358 146.057 432.448C149.323 431.435 135.877 428.18 135.877 428.18Z" fill="#4CAF4F"/>
<path d="M146.43 431.621C146.43 431.766 140.498 431.89 133.191 431.89C125.884 431.89 119.951 431.766 119.951 431.621C119.951 431.477 125.884 431.353 133.191 431.353C140.498 431.353 146.43 431.477 146.43 431.621Z" fill="#263238"/>
<path d="M136.155 429.988C136.021 429.916 136.155 429.451 136.476 428.955C136.796 428.459 137.23 428.252 137.333 428.356C137.437 428.459 137.22 428.852 136.91 429.275C136.6 429.699 136.29 430.061 136.155 429.988Z" fill="#263238"/>
<path d="M137.169 430.567C137.025 430.567 137.097 429.988 137.407 429.44C137.717 428.892 138.13 428.562 138.244 428.644C138.358 428.727 138.172 429.192 137.882 429.678C137.593 430.164 137.304 430.618 137.169 430.567Z" fill="#263238"/>
<path d="M124.725 431.58C124.663 431.58 124.425 431.394 124.084 431.001C123.668 430.496 123.204 430.032 122.699 429.616C122.203 429.22 121.611 428.959 120.983 428.862C120.498 428.8 120.187 428.862 120.156 428.8C120.125 428.738 120.425 428.521 120.994 428.479C121.744 428.463 122.476 428.712 123.061 429.182C123.609 429.629 124.071 430.172 124.425 430.784C124.663 431.239 124.787 431.538 124.725 431.58Z" fill="#263238"/>
<path d="M136.208 428.325C136.281 428.449 136.012 428.759 135.557 428.924C135.102 429.089 134.699 429.027 134.679 428.924C134.658 428.821 134.978 428.604 135.371 428.459C135.764 428.314 136.126 428.2 136.208 428.325Z" fill="#263238"/>
<path d="M135.96 427.467C135.96 427.622 135.547 427.746 135.01 427.756C134.472 427.766 134.048 427.642 134.059 427.498C134.069 427.353 134.493 427.218 135.01 427.208C135.526 427.198 135.94 427.322 135.96 427.467Z" fill="#263238"/>
<path d="M174.892 428.18V419.343L159.048 419.229L158.914 432.459L159.896 432.531C164.268 432.81 182.148 433.358 185.073 432.448C188.339 431.435 174.892 428.18 174.892 428.18Z" fill="#4CAF4F"/>
<path d="M185.445 431.642C185.445 431.786 179.523 431.911 172.206 431.911C164.888 431.911 158.977 431.786 158.977 431.642C158.977 431.497 164.899 431.373 172.206 431.373C179.513 431.373 185.445 431.497 185.445 431.642Z" fill="#263238"/>
<path d="M175.172 429.988C175.048 429.916 175.172 429.451 175.493 428.955C175.813 428.459 176.247 428.252 176.351 428.356C176.454 428.459 176.237 428.852 175.927 429.275C175.617 429.699 175.307 430.061 175.172 429.988Z" fill="#263238"/>
<path d="M176.184 430.567C176.049 430.567 176.111 429.988 176.432 429.44C176.752 428.892 177.155 428.562 177.269 428.644C177.383 428.727 177.186 429.192 176.897 429.678C176.608 430.164 176.329 430.618 176.184 430.567Z" fill="#263238"/>
<path d="M163.74 431.58C163.678 431.58 163.451 431.394 163.1 431.001C162.683 430.496 162.219 430.032 161.715 429.616C161.218 429.22 160.627 428.959 159.999 428.862C159.524 428.8 159.203 428.862 159.172 428.8C159.141 428.738 159.441 428.521 160.009 428.479C160.759 428.463 161.491 428.712 162.076 429.182C162.627 429.626 163.09 430.169 163.441 430.784C163.678 431.239 163.802 431.538 163.74 431.58Z" fill="#263238"/>
<path d="M175.224 428.325C175.296 428.449 175.028 428.759 174.573 428.924C174.118 429.089 173.715 429.027 173.694 428.924C173.674 428.821 173.994 428.604 174.387 428.459C174.78 428.314 175.141 428.2 175.224 428.325Z" fill="#263238"/>
<path d="M174.997 427.467C174.997 427.622 174.584 427.746 174.046 427.756C173.509 427.766 173.095 427.642 173.106 427.498C173.116 427.353 173.529 427.218 174.046 427.208C174.563 427.198 174.997 427.322 174.997 427.467Z" fill="#263238"/>
<path d="M233.266 165.767C232.853 165.344 231.83 165.55 231.83 165.55C231.932 164.955 231.932 164.347 231.83 163.752C231.644 163.173 230.341 163.287 230.341 163.287C230.281 162.8 230.281 162.307 230.341 161.819C230.352 161.711 230.329 161.603 230.275 161.508C230.221 161.414 230.14 161.339 230.042 161.292C229.426 161.041 228.764 160.921 228.099 160.941C227.303 160.372 230.527 155.856 231.726 154.409C232.925 152.962 232.708 151.835 231.644 151.835C230.91 151.835 227.148 156.176 225.99 157.634C224.833 159.091 221.763 163.142 221.66 159.907C221.556 156.672 220.254 154.233 219.438 153.82C218.621 153.406 217.753 154.378 218.197 155.277C218.588 156.299 218.831 157.37 218.921 158.46C219.033 159.329 218.995 160.21 218.807 161.065C218.465 162.656 217.998 164.218 217.412 165.736H217.329C217.329 165.736 194.778 187.368 193.145 188.908C191.688 190.293 162.377 187.265 156.496 186.645C154.498 186.352 152.48 186.214 150.46 186.231C147.907 186.345 147.453 186.707 144.91 186.738C138.489 186.809 132.083 187.372 125.749 188.422C122.88 188.91 120.201 190.176 118.003 192.082C115.805 193.989 114.172 196.462 113.284 199.233C107.362 217.733 93.9469 261.524 91.5801 286.122C89.7917 289.365 88.1771 292.701 86.7432 296.116C85.0793 300.643 85.4823 300.798 86.0404 300.901C87.5494 301.18 89.265 293.056 89.9058 295.02C90.5466 296.984 86.6502 304.704 88.2315 304.932C90.2986 305.221 91.9419 296.663 92.1382 295.981C92.3346 295.299 93.3578 295.516 93.1718 296.157C92.872 297.067 89.9678 306.709 91.9936 307.019C93.1098 307.185 93.2338 305.149 93.2338 305.149C93.2338 305.149 95.3008 295.919 96.2413 296.105C97.1819 296.291 96.1793 301.738 95.7039 303.557C95.2285 305.376 95.8899 306.296 96.8615 305.852C97.5229 305.542 99.1042 300.012 99.5383 298.214C99.9724 296.415 101.058 291.434 102.515 294.317C103.972 297.201 106.184 298.875 107.093 298.917C107.298 298.893 107.491 298.809 107.648 298.674C107.805 298.54 107.917 298.362 107.972 298.163C108.026 297.964 108.02 297.753 107.954 297.558C107.887 297.362 107.764 297.191 107.6 297.067C106.818 296.303 106.146 295.433 105.605 294.483C105.123 293.743 104.773 292.924 104.572 292.064C104.155 290.35 103.913 288.598 103.848 286.835L103.683 285.801C105.998 274.339 112.664 240.698 122.286 219.211L126.234 227.335L127.95 233.35L117.429 259.322L162.304 258.733L155.607 232.957L163.741 206.085C172.536 206.282 195.119 206.612 198.881 204.907C203.614 202.84 228.099 171.917 228.099 171.917C229.695 170.677 231.223 169.352 232.677 167.948C232.677 167.948 234.165 166.698 233.266 165.767Z" fill="#FFBE9D"/>
<path d="M115.454 240.13C116.756 235.685 123.443 213.713 123.443 213.713C123.443 213.713 126.73 231.624 125.861 233.784C125.063 235.633 124.119 237.416 123.04 239.117C115.454 250.661 116.446 256.439 116.446 256.439L162.283 255.043C162.386 248.635 158.593 233.732 157.808 231.355C157.022 228.978 159.637 221.195 159.637 221.195C159.637 221.195 164.805 215.935 164.619 213.227C164.52 210.794 164.22 208.375 163.719 205.992L191.625 207.026L190.746 188.112L150.666 184.102C149.271 188.04 136.651 186.107 136.651 186.107C123.029 186.562 122.182 189.063 116.518 193.466C110.855 197.869 101.48 235.654 101.48 235.654L115.454 240.13Z" fill="#4CAF4F"/>
<path d="M142.553 235.654C141.759 235.796 140.95 235.838 140.145 235.778C138.646 235.778 136.589 235.675 134.326 235.447C132.063 235.22 130.016 234.9 128.559 234.61C127.755 234.507 126.968 234.305 126.213 234.011C127.021 234.011 127.827 234.087 128.621 234.238C130.089 234.424 132.125 234.683 134.378 234.91C136.631 235.137 138.677 235.292 140.155 235.396C140.961 235.406 141.764 235.492 142.553 235.654Z" fill="#263238"/>
<path d="M145.696 231.758C144.901 232.147 144.061 232.435 143.195 232.616C139.071 233.699 134.817 234.204 130.555 234.114C129.673 234.143 128.791 234.06 127.93 233.866C128.8 233.756 129.678 233.711 130.555 233.732C132.177 233.68 134.41 233.566 136.87 233.277C139.329 232.988 141.521 232.574 143.071 232.244C143.932 232.014 144.81 231.851 145.696 231.758Z" fill="#263238"/>
<path d="M161.115 214.374C161.094 215.162 160.987 215.945 160.795 216.71C160.526 218.146 160.113 220.11 159.585 222.26C159.058 224.41 158.552 226.394 158.097 227.738C157.914 228.507 157.644 229.252 157.291 229.96C157.349 229.174 157.494 228.398 157.725 227.645C158.118 226.032 158.562 224.172 159.058 222.136C159.554 220.1 160.03 218.239 160.423 216.627C160.562 215.851 160.795 215.095 161.115 214.374Z" fill="#263238"/>
<path d="M115.941 237.494C113.55 237.125 111.19 236.575 108.882 235.851C106.523 235.299 104.208 234.574 101.957 233.68C104.347 234.055 106.706 234.605 109.016 235.323C111.375 235.873 113.69 236.599 115.941 237.494Z" fill="#263238"/>
<path d="M164.217 205.765C163.827 205.832 163.429 205.832 163.039 205.765C161.959 205.654 160.899 205.4 159.886 205.01C158.196 204.375 156.657 203.393 155.368 202.127C154.079 200.862 153.07 199.341 152.404 197.662C151.668 195.815 151.353 193.827 151.484 191.843C151.53 190.207 152.019 188.614 152.9 187.234C153.519 186.304 154.444 185.62 155.515 185.301C155.801 185.222 156.096 185.184 156.393 185.187C156.6 185.187 156.703 185.187 156.703 185.187C156.703 185.187 156.269 185.187 155.577 185.466C154.595 185.829 153.762 186.509 153.21 187.399C151.804 189.611 151.411 193.652 152.91 197.424C153.608 199.203 154.7 200.8 156.104 202.096C157.254 203.156 158.579 204.009 160.021 204.618C161.373 205.152 162.78 205.537 164.217 205.765Z" fill="#263238"/>
<path d="M188.309 206.653C188.05 203.484 187.967 200.303 188.061 197.124C187.98 193.948 188.076 190.771 188.35 187.605C188.609 190.771 188.691 193.949 188.598 197.124C188.685 200.304 188.588 203.485 188.309 206.653Z" fill="#263238"/>
<path d="M150.398 185.26C150.512 182.955 150.75 180.35 150.75 180.35C150.75 180.35 156.455 179.72 156.796 173.829C157.137 167.938 156.796 154.347 156.796 154.347L146.46 149.055L134.988 158.078L136.756 187.533L147.277 188.205C148.081 188.227 148.861 187.93 149.446 187.378C150.032 186.825 150.374 186.064 150.398 185.26Z" fill="#FFBE9D"/>
<path d="M151.421 169.167C151.421 169.167 151.421 169.281 151.328 169.415C151.251 169.513 151.152 169.59 151.038 169.641C150.925 169.691 150.801 169.713 150.677 169.705C150.016 169.705 149.375 168.94 149.147 168.051C149.039 167.62 149.039 167.169 149.147 166.739C149.169 166.55 149.236 166.371 149.345 166.215C149.453 166.06 149.598 165.935 149.768 165.85C149.907 165.792 150.063 165.792 150.202 165.85C150.305 165.901 150.388 165.984 150.439 166.087C150.512 166.263 150.439 166.377 150.439 166.366C150.439 166.356 150.439 166.263 150.336 166.16C150.282 166.086 150.203 166.034 150.113 166.015C150.023 165.996 149.93 166.011 149.85 166.056C149.723 166.133 149.618 166.241 149.544 166.369C149.47 166.497 149.43 166.642 149.427 166.79C149.34 167.175 149.34 167.574 149.427 167.958C149.633 168.764 150.191 169.415 150.687 169.477C150.784 169.491 150.883 169.484 150.977 169.457C151.072 169.43 151.159 169.384 151.235 169.322C151.359 169.24 151.401 169.157 151.421 169.167Z" fill="#EB996E"/>
<path d="M160.341 151.163C159.545 148.456 156.662 147.112 154.036 146.368C150.037 145.231 145.717 144.735 141.81 146.172C137.903 147.608 133.211 150.13 133.211 154.44C130.906 154.254 129.583 156.269 128.674 158.77C128.092 160.294 127.744 161.897 127.64 163.524C127.351 169.168 125.77 176.96 122.111 181.094C120.044 183.399 117.181 184.991 116.003 187.864C114.969 190.355 115.507 193.311 114.545 195.833C113.688 198.055 111.796 199.636 110.411 201.569C109 203.761 108.17 206.276 107.998 208.878C107.826 211.48 108.319 214.082 109.429 216.441C110.548 218.74 112.123 220.786 114.058 222.456C115.993 224.127 118.247 225.385 120.685 226.156C125.512 227.625 130.66 227.675 135.516 226.301C139.16 225.43 142.559 223.744 145.458 221.371C148.425 218.948 150.462 215.574 151.225 211.821C151.959 207.604 150.781 203.315 149.902 199.119C147.153 185.859 147.939 185.167 151.411 172.857C151.494 172.64 151.535 172.413 151.597 172.196C151.659 171.979 151.69 171.875 151.732 171.71C151.83 171.223 151.882 170.729 151.887 170.232C151.38 170.421 150.829 170.461 150.3 170.347C149.771 170.234 149.285 169.971 148.9 169.591C148.514 169.186 148.245 168.684 148.121 168.138C147.997 167.592 148.023 167.023 148.197 166.491C148.441 165.909 148.804 165.384 149.264 164.952C149.723 164.519 150.268 164.188 150.864 163.979C152.011 163.504 153.241 163.256 154.367 162.729C156.755 161.592 158.408 159.235 159.535 156.765C160.461 155.053 160.747 153.067 160.341 151.163Z" fill="#263238"/>
<path d="M151.836 169.447C152.054 169.769 152.234 170.116 152.373 170.48C152.683 171.131 153.096 172.051 153.551 173.116L153.634 173.312H153.417L152.383 173.405C151.67 173.405 151.071 173.54 150.368 173.529C150.307 173.515 150.25 173.486 150.203 173.445C150.156 173.403 150.12 173.351 150.099 173.291C150.068 173.197 150.068 173.096 150.099 173.002C150.123 172.863 150.154 172.725 150.192 172.589L150.378 171.855C150.472 171.365 150.617 170.887 150.812 170.429C150.793 170.928 150.72 171.423 150.595 171.907L150.451 172.64C150.399 172.888 150.306 173.271 150.451 173.24C150.967 173.24 151.701 173.126 152.383 173.085L153.417 172.992L153.283 173.219C152.838 172.186 152.466 171.214 152.249 170.542C152.059 170.199 151.919 169.83 151.836 169.447Z" fill="#4CAF4F"/>
<path d="M116.447 256.439L162.284 255.043L182.231 332.909L178.562 422.227H154.325L157.292 334.811L139.567 280.603L142.295 425.689L117.801 426.051L115.227 289.677C115.113 285.884 113.873 277.337 114.338 273.575L116.447 256.439Z" fill="#263238"/>
<path d="M145.665 281.708C144.915 281.755 144.162 281.71 143.423 281.574C142.038 281.408 140.146 281.119 138.069 280.706C135.992 280.292 134.131 279.817 132.788 279.434C132.07 279.276 131.375 279.026 130.721 278.69C130.721 278.535 134.09 279.341 138.224 280.178C142.358 281.016 145.686 281.553 145.665 281.708Z" fill="#455A64"/>
<path d="M178.315 417.327C178.315 417.472 172.827 417.596 166.057 417.596C159.287 417.596 153.789 417.472 153.789 417.327C153.789 417.183 159.277 417.059 166.057 417.059C172.837 417.059 178.315 417.172 178.315 417.327Z" fill="#455A64"/>
<path d="M142.078 421.916C142.078 422.071 136.745 422.185 130.171 422.185C123.598 422.185 118.275 422.071 118.275 421.916C118.275 421.761 123.608 421.647 130.171 421.647C136.734 421.647 142.078 421.771 142.078 421.916Z" fill="#455A64"/>
<path d="M138.915 421.544C138.771 421.544 138.13 389.846 137.479 350.748C136.828 311.65 136.445 279.931 136.58 279.931C136.714 279.931 137.375 311.619 138.016 350.738C138.657 389.857 139.07 421.544 138.915 421.544Z" fill="#455A64"/>
<path d="M175.057 417.328C175.046 417.187 175.046 417.045 175.057 416.904V415.664C175.057 414.547 175.14 412.945 175.202 410.909C175.347 406.775 175.553 400.77 175.812 393.412C176.37 378.612 177.155 358.21 178.013 335.689C178.013 335.472 178.013 335.266 178.013 335.08V335.152C172.587 313.448 167.678 293.749 164.112 279.496L159.978 262.64C159.503 260.666 159.141 259.126 158.883 258.051C158.759 257.544 158.676 257.152 158.604 256.852C158.563 256.717 158.539 256.579 158.531 256.438C158.585 256.569 158.626 256.704 158.655 256.842C158.738 257.131 158.841 257.524 158.986 258.02C159.265 259.053 159.668 260.624 160.185 262.588C161.218 266.577 162.676 272.324 164.495 279.403C168.091 293.645 173.052 313.293 178.551 335.028V335.1C178.551 335.286 178.551 335.503 178.551 335.71C177.631 358.23 176.794 378.622 176.184 393.422C175.863 400.791 175.595 406.755 175.409 410.909C175.305 412.976 175.223 414.547 175.171 415.664C175.171 416.191 175.109 416.604 175.099 416.904C175.1 417.046 175.086 417.188 175.057 417.328Z" fill="#455A64"/>
<path d="M167.152 333.261C165.411 333.833 163.617 334.231 161.798 334.449C159.566 334.832 157.664 335.1 156.806 335.142V334.935C157.085 335.018 157.23 335.069 157.23 335.111C157.23 335.152 157.054 335.111 156.765 335.111H156.145L156.765 334.925C157.571 334.687 159.472 334.294 161.705 333.891C163.495 333.503 165.32 333.292 167.152 333.261Z" fill="#455A64"/>
<path d="M166.728 336.227C165.116 336.301 163.501 336.228 161.902 336.01C160.287 335.977 158.679 335.8 157.096 335.483C160.326 335.219 163.577 335.47 166.728 336.227Z" fill="#455A64"/>
<path opacity="0.2" d="M116.25 258.082C116.793 258.779 117.477 259.354 118.257 259.769C119.037 260.184 119.895 260.43 120.777 260.49C122.623 260.709 124.49 260.674 126.327 260.387C138.161 259.074 150.697 257.865 162.283 255.043C147.287 255.881 131.443 255.602 116.446 256.439L116.291 257.72" fill="black"/>
<g opacity="0.2">
<path d="M131.701 279.217L140.155 312.021L139.566 280.602L131.701 279.217Z" fill="black"/>
</g>
</svg>
